<svg width="40" height="40" viewBox="0 0 40 40" fill="none" xmlns="http://www.w3.org/2000/svg">
<g id="material-symbols:arrow-outward-rounded">
<path id="Vector" d="M26.6667 14L11.875 28.8333C11.5417 29.1666 11.1456 29.3333 10.6867 29.3333C10.2278 29.3333 9.83222 29.1666 9.5 28.8333C9.16667 28.5 9 28.1039 9 27.645C9 27.1861 9.16667 26.7905 9.5 26.4583L24.3333 11.6667H11.6667C11.1944 11.6667 10.7983 11.5067 10.4783 11.1867C10.1583 10.8667 9.99889 10.4711 10 9.99999C10 9.52776 10.16 9.13165 10.48 8.81165C10.8 8.49165 11.1956 8.33221 11.6667 8.33332H28.3333C28.8056 8.33332 29.2017 8.49332 29.5217 8.81332C29.8417 9.13332 30.0011 9.52887 30 9.99999V26.6667C30 27.1389 29.84 27.535 29.52 27.855C29.2 28.175 28.8044 28.3344 28.3333 28.3333C27.8611 28.3333 27.465 28.1733 27.145 27.8533C26.825 27.5333 26.6656 27.1378 26.6667 26.6667V14Z" fill="#003050"/>
</g>
</svg>
