<svg width="34" height="34" viewBox="0 0 34 34" fill="none" xmlns="http://www.w3.org/2000/svg">
<g id="simple-icons:aiqfome" clip-path="url(#clip0_8_151)">
<path id="Vector" d="M8.11364 12.9794C8.97046 13.3704 9.51391 14.5871 9.58166 16.2852C9.62824 17.4103 9.49697 18.26 9.15396 19.0025C8.35784 20.7091 6.92651 20.7698 6.10074 19.1324C5.74785 18.4435 5.5954 17.6855 5.5954 16.6226C5.60387 15.4891 5.72527 14.8243 6.08522 14.0889C6.59761 13.0415 7.34857 12.6279 8.11364 12.9794ZM21.9018 13.0866C22.736 13.6372 23.3105 15.3833 23.1948 17.0051C23.0649 18.9404 22.2081 20.3336 21.1678 20.3336C20.5933 20.3336 20.0047 19.8283 19.6221 19.0025C18.9869 17.6248 19.025 15.3141 19.7139 13.9675C20.2263 12.9568 21.1593 12.5827 21.9018 13.0866ZM17.4864 0.0409633C17.8012 0.0861334 17.8464 0.125657 18.0228 0.45314C18.2825 0.927426 18.4435 1.09681 18.9262 1.41018C19.3695 1.69249 19.3695 1.70802 19.217 2.43498C19.0857 3.0476 19.162 3.65175 19.4457 4.1952C19.8593 5.01391 21.0139 5.87072 22.0712 6.13892C22.4678 6.2462 22.6288 6.25326 23.1115 6.16998C23.4249 6.12339 23.7312 6.10081 23.7919 6.12339C23.861 6.15445 24.022 6.40571 24.1589 6.68943C24.4652 7.34863 25.2317 8.13629 25.8429 8.42001C26.838 8.88583 27.9179 8.86324 28.9568 8.34943C29.2476 8.20545 29.5384 8.1137 29.6075 8.13629C29.6682 8.15887 29.8447 8.3339 29.9971 8.51882C30.151 8.71079 30.4573 8.95499 30.6718 9.06227C31.0233 9.24578 31.1532 9.26836 31.7348 9.25989C32.1935 9.25283 32.4236 9.27683 32.4772 9.34458C32.6989 9.61278 33.3101 12.4514 33.5712 14.4036C33.8013 16.1554 33.8239 20.0739 33.6093 21.7861C33.327 24.1067 32.9064 26.0956 32.3248 27.8855C31.9112 29.1559 31.5442 29.9901 30.7862 31.3523C29.6386 33.4188 29.1939 33.8776 28.3526 33.8776C28.1181 33.8782 27.8843 33.8498 27.6567 33.7929C27.1585 33.6249 26.3934 33.0363 25.2147 31.9183C23.8229 30.6027 23.2329 30.144 22.4989 29.784C21.604 29.3394 20.7231 29.3013 19.9581 29.6768C19.7746 29.7685 19.2551 30.1821 18.8189 30.6027C17.9014 31.4751 17.5485 31.6657 16.7439 31.7193C15.7502 31.7814 15.1912 31.5287 13.63 30.319C12.9652 29.8066 12.4754 29.5765 11.9319 29.5314C11.2741 29.4777 10.7914 29.6457 9.72847 30.2894C8.67967 30.9246 8.12069 31.1222 7.39374 31.1222C5.87913 31.1222 4.56214 30.1906 3.20845 28.1622C1.7009 25.8881 0.598465 22.7121 0.239928 19.5685C0.101594 18.3828 0.0790092 15.9874 0.193346 14.8158C0.797496 8.79408 3.71379 4.18673 8.41994 1.8393C9.88797 1.10528 11.5028 0.591474 13.3463 0.278106C14.724 0.0480211 16.7524 -0.0663156 17.4864 0.0409633ZM14.3259 2.13008C10.7843 2.48156 7.3401 4.39423 5.26651 7.1496C3.10823 10.0193 1.90699 14.7706 2.34457 18.7103C2.62688 21.3217 3.70532 24.2818 5.15217 26.4556C5.88619 27.5566 6.1685 27.8629 6.68231 28.1156C7.4629 28.4981 8.26608 28.3612 9.26124 27.6794C10.1491 27.0668 11.068 26.8 12.0533 26.8536C13.0555 26.9143 13.4395 27.1134 14.9541 28.4064C15.849 29.1714 16.6225 29.2561 17.4864 28.6816C17.6784 28.5517 18.1075 28.2228 18.4435 27.9476C19.5219 27.0527 20.3491 26.7379 21.6576 26.7308C23.295 26.7224 24.3579 27.335 25.8655 29.1728C27.0907 30.655 27.565 30.9627 28.2369 30.71C29.3393 30.2894 30.4488 27.7711 31.1758 24.0531C32.1399 19.1408 31.9564 14.8469 30.6789 12.2383C30.2653 11.3801 29.7684 10.8295 29.3012 10.6926C29.0104 10.6079 28.9201 10.615 28.3075 10.814C27.7174 11.006 27.5114 11.0371 26.7463 11.0371C26.0264 11.0371 25.7737 10.9975 25.346 10.8535C24.5273 10.5769 24.1603 10.2409 23.2484 8.93947C22.8278 8.33532 22.4608 8.13629 21.4656 7.93726C19.6306 7.58436 18.8796 7.26394 18.2289 6.55957C17.6163 5.90178 17.2267 5.02096 16.9444 3.66021C16.8667 3.26215 16.7298 2.82598 16.6451 2.68765C16.3318 2.18372 15.5738 1.9988 14.3259 2.13008Z" fill="#003050"/>
</g>
<defs>
<clipPath id="clip0_8_151">
<rect width="33.8776" height="33.8776" fill="white"/>
</clipPath>
</defs>
</svg>
