<svg width="34" height="34" viewBox="0 0 34 34" fill="none" xmlns="http://www.w3.org/2000/svg">
<g id="simple-icons:aiqfome" clip-path="url(#clip0_1_30)">
<path id="Vector" d="M8.11364 12.9793C8.97046 13.3704 9.51391 14.5871 9.58166 16.2852C9.62824 17.4102 9.49697 18.26 9.15396 19.0025C8.35784 20.7091 6.92651 20.7698 6.10074 19.1324C5.74785 18.4435 5.5954 17.6855 5.5954 16.6226C5.60387 15.4891 5.72527 14.8243 6.08522 14.0888C6.59761 13.0415 7.34857 12.6279 8.11364 12.9793ZM21.9018 13.0866C22.736 13.6371 23.3105 15.3832 23.1948 17.0051C23.0649 18.9404 22.2081 20.3336 21.1678 20.3336C20.5933 20.3336 20.0047 19.8283 19.6221 19.0025C18.9869 17.6248 19.025 15.3141 19.7139 13.9674C20.2263 12.9568 21.1593 12.5827 21.9018 13.0866ZM17.4864 0.0409481C17.8012 0.0861181 17.8464 0.125642 18.0228 0.453125C18.2825 0.927411 18.4435 1.0968 18.9262 1.41017C19.3695 1.69248 19.3695 1.70801 19.217 2.43496C19.0857 3.04758 19.162 3.65173 19.4457 4.19518C19.8593 5.01389 21.0139 5.87071 22.0712 6.13891C22.4678 6.24619 22.6288 6.25324 23.1115 6.16996C23.4249 6.12338 23.7312 6.10079 23.7919 6.12338C23.861 6.15443 24.022 6.40569 24.1589 6.68942C24.4652 7.34862 25.2317 8.13627 25.8429 8.42C26.838 8.88581 27.9179 8.86323 28.9568 8.34942C29.2476 8.20544 29.5384 8.11369 29.6075 8.13627C29.6682 8.15886 29.8447 8.33389 29.9971 8.5188C30.151 8.71078 30.4573 8.95498 30.6718 9.06226C31.0233 9.24576 31.1532 9.26834 31.7348 9.25988C32.1935 9.25282 32.4236 9.27681 32.4772 9.34457C32.6989 9.61277 33.3101 12.4514 33.5712 14.4036C33.8013 16.1554 33.8239 20.0739 33.6093 21.7861C33.327 24.1067 32.9064 26.0956 32.3248 27.8855C31.9112 29.1559 31.5442 29.9901 30.7862 31.3523C29.6386 33.4188 29.1939 33.8776 28.3526 33.8776C28.1181 33.8782 27.8843 33.8498 27.6567 33.7929C27.1585 33.6249 26.3934 33.0363 25.2147 31.9183C23.8229 30.6027 23.2329 30.144 22.4989 29.784C21.604 29.3394 20.7231 29.3013 19.9581 29.6767C19.7746 29.7685 19.2551 30.1821 18.8189 30.6027C17.9014 31.4751 17.5485 31.6656 16.7439 31.7193C15.7502 31.7814 15.1912 31.5287 13.63 30.319C12.9652 29.8066 12.4754 29.5765 11.9319 29.5314C11.2741 29.4777 10.7914 29.6457 9.72847 30.2894C8.67967 30.9246 8.12069 31.1222 7.39374 31.1222C5.87913 31.1222 4.56214 30.1906 3.20845 28.1621C1.7009 25.8881 0.598465 22.7121 0.239928 19.5685C0.101594 18.3828 0.0790092 15.9874 0.193346 14.8158C0.797496 8.79406 3.71379 4.18671 8.41994 1.83928C9.88797 1.10527 11.5028 0.591458 13.3463 0.278091C14.724 0.0480059 16.7524 -0.0663308 17.4864 0.0409481ZM14.3259 2.13006C10.7843 2.48154 7.3401 4.39421 5.26651 7.14959C3.10823 10.0193 1.90699 14.7706 2.34457 18.7103C2.62688 21.3217 3.70532 24.2817 5.15217 26.4556C5.88619 27.5566 6.1685 27.8629 6.68231 28.1156C7.4629 28.4981 8.26608 28.3612 9.26124 27.6794C10.1491 27.0668 11.068 26.8 12.0533 26.8536C13.0555 26.9143 13.4395 27.1133 14.9541 28.4063C15.849 29.1714 16.6225 29.2561 17.4864 28.6816C17.6784 28.5517 18.1075 28.2228 18.4435 27.9476C19.5219 27.0526 20.3491 26.7379 21.6576 26.7308C23.295 26.7223 24.3579 27.335 25.8655 29.1728C27.0907 30.655 27.565 30.9627 28.2369 30.71C29.3393 30.2894 30.4488 27.7711 31.1758 24.0531C32.1399 19.1408 31.9564 14.8468 30.6789 12.2383C30.2653 11.38 29.7684 10.8295 29.3012 10.6926C29.0104 10.6079 28.9201 10.615 28.3075 10.814C27.7174 11.006 27.5114 11.037 26.7463 11.037C26.0264 11.037 25.7737 10.9975 25.346 10.8535C24.5273 10.5769 24.1603 10.2409 23.2484 8.93945C22.8278 8.3353 22.4608 8.13627 21.4656 7.93724C19.6306 7.58435 18.8796 7.26392 18.2289 6.55955C17.6163 5.90176 17.2267 5.02095 16.9444 3.6602C16.8667 3.26214 16.7298 2.82596 16.6451 2.68763C16.3318 2.1837 15.5738 1.99879 14.3259 2.13006Z" fill="#ABABAB"/>
</g>
<defs>
<clipPath id="clip0_1_30">
<rect width="33.8776" height="33.8776" fill="white"/>
</clipPath>
</defs>
</svg>
