<svg width="30" height="30" viewBox="0 0 30 30" fill="none" xmlns="http://www.w3.org/2000/svg">
<path id="Vector" fill-rule="evenodd" clip-rule="evenodd" d="M1.29627 9.11688C0.533966 10.7078 0.802183 12.5698 1.33862 16.2924L1.73106 19.0268C2.41854 23.8095 2.76299 26.1995 4.4217 27.6281C6.0804 29.0567 8.51271 29.0567 13.3787 29.0567H16.5013C21.3673 29.0567 23.7996 29.0567 25.4584 27.6281C27.1171 26.1995 27.4615 23.8095 28.149 19.0268L28.5428 16.2924C29.0793 12.5698 29.3475 10.7078 28.5838 9.11688C27.8215 7.52593 26.1967 6.55752 22.9484 4.62354L20.9933 3.45892C18.0457 1.70139 16.5691 0.823334 14.94 0.823334C13.311 0.823334 11.8358 1.70139 8.8868 3.45892L6.93164 4.62354C3.68481 6.55752 2.05998 7.52593 1.29627 9.11688ZM9.64627 23.41C9.64627 23.1292 9.75782 22.8599 9.95638 22.6613C10.1549 22.4628 10.4242 22.3512 10.705 22.3512H19.175C19.4558 22.3512 19.7251 22.4628 19.9237 22.6613C20.1222 22.8599 20.2338 23.1292 20.2338 23.41C20.2338 23.6908 20.1222 23.9601 19.9237 24.1586C19.7251 24.3572 19.4558 24.4687 19.175 24.4687H10.705C10.4242 24.4687 10.1549 24.3572 9.95638 24.1586C9.75782 23.9601 9.64627 23.6908 9.64627 23.41Z" fill="#003B8C"/>
</svg>
